<svg version="1.2" xmlns="http://www.w3.org/2000/svg" viewBox="0 0 431 296" width="431" height="296"><style>.a{opacity:.92;fill:#c5c4c0}.b{opacity:1;fill:#222122}.c{opacity:1;fill:#c0986e}</style><path fill-rule="evenodd" class="a" d="m243.1-0.1l40.4 0.3c22.2 0.2 40.6 0.5 41 0.8 0.3 0.3 0.8 3.4 1.8 13.5l-12.9 12.1c-7.1 6.7-14.4 13.4-16.1 14.8-1.8 1.4-3.3 2.5-3.3 2.3 0-0.1 6.9-6.7 31.1-29.2v-4.5c-0.1-2.5-0.7-5.4-1.5-6.5-1.4-1.9-2.8-2-80.3-2.6l-8.1 7.6c-4.5 4.1-8.2 7.3-8.2 7 0-0.3 0.8-1.3 1.8-2.3 0.9-1 4.5-4.4 8-7.6zm-17.1 16.2c0.3 0-2.4 2.8-6 6.2-3.6 3.4-10.6 9.8-15.5 14.2-4.9 4.4-15.2 13.8-22.9 20.9-7.8 7.2-16.5 15.3-19.5 18-2.9 2.8-5 4.4-4.5 3.6 0.5-0.8 4-4.4 7.8-8 3.9-3.6 10.2-9.5 14.1-13.1 3.8-3.7 8.5-7.8 10.3-9.3 1.9-1.5 2.9-3.1 2.5-3.8-0.3-0.7-0.2-1 0.3-0.6 0.5 0.4 2-0.2 3.4-1.3 1.4-1.1 7-6.2 12.5-11.3 5.5-5.1 11.6-10.7 13.5-12.4 1.9-1.7 3.7-3.1 4-3.1zm62.9 32.5c0.3 0.3 0.2 0.8-0.4 1.3-0.5 0.4-6.2 5.5-12.5 11.2-6.3 5.7-15.7 14.2-20.9 18.9-5.2 4.7-11.1 10.1-13.1 12-2 1.9-7.4 6.9-12.1 10.9-4.6 4.1-9.1 8.2-9.9 9-0.8 0.9-3.5 3.4-6 5.5-2.5 2.2-7.9 7.1-12 11-4.2 3.9-10.4 9.7-13.8 12.9-3.4 3.1-7.3 6.3-8.7 7-1.4 0.7-2.7 1.9-2.9 2.7-0.3 1.1-0.4 1.1-0.5-0.2 0-1 0.9-2.3 2.2-2.9 1.2-0.7 2.4-1.5 2.7-1.9 0.3-0.4 2.8-2.6 5.5-5 2.8-2.3 10.1-9 16.4-14.9 6.3-5.8 12.6-11.7 14.1-13.1 1.4-1.4 6.4-5.9 11.1-10 4.6-4.1 13.6-12.2 19.9-18 6.4-5.8 15.8-14.3 21-19 5.2-4.7 11.7-10.6 14.4-13.2 2.7-2.5 5.2-4.4 5.5-4.2zm-133.4 31.5c0.5 0-1.1 1.9-3.5 4.4-2.5 2.5-4.7 4.2-5 3.9-0.3-0.2 1.3-2.2 3.5-4.3 2.2-2.1 4.4-3.9 5-4zm-9.6 8.9c0.3 0-0.9 1.4-2.5 3.1-1.6 1.7-10.3 9.9-19.4 18.2-9.1 8.3-18.1 16.5-20 18.3-1.9 1.7-6.4 5.9-10 9.2-3.6 3.3-6.7 5.8-7 5.5-0.3-0.2 2.4-3.1 6-6.4 3.6-3.2 6.8-5.9 7.3-5.9 0.4 0 0.7-0.7 0.7-1.5 0-0.8 0.6-1.5 1.3-1.5 0.6 0 4.2-2.8 7.8-6.3 3.6-3.4 11-10.3 16.5-15.3 5.4-5 11.9-10.9 14.4-13.2 2.5-2.3 4.7-4.1 4.9-4.2zm-61.4 57c0.6 0-0.3 1-5 4.5l19 1.1-10.2 0.2c-10 0.2-10.3 0.2-9.1-1.7 0.6-1.1 1.8-2.5 2.7-3 0.9-0.6 2.1-1.1 2.6-1.1zm188.8 8c0.5 0 3.8 3.2 7.5 7 3.7 3.9 6.5 7 6.2 7-0.3 0-3.6-3.1-7.5-7-3.8-3.8-6.6-7-6.2-7zm1.2 53.5c19.3 0 26.9 0.1 17 0.3-9.9 0.1-25.6 0.1-35 0-9.3-0.2-1.2-0.3 18-0.3zm-264 43.9l-4.7 0.3c-4.2 0.3-4.8 0.6-4.9 2.6 0 1.4-0.2 1.7-0.6 0.7-0.2-0.8-0.2-2 0.1-2.7 0.3-0.8 2.3-1.2 10.1-0.9zm2.3 8.6c0.1 4.7 0.1 12.6 0 17.5-0.2 5-0.4 1.1-0.4-8.5 0-9.6 0.2-13.7 0.4-9zm193.2 1.5c16.2 0 22.8 0.1 14.5 0.3-8.2 0.1-21.5 0.1-29.5 0-8-0.2-1.2-0.3 15-0.3zm148.7 6.5c0.2 4.1 0.2 11.1 0 15.5-0.1 4.4-0.3 1-0.3-7.5 0-8.5 0.2-12.1 0.3-8zm11.2-7l63.6 0.5-62.5 0.5v7l58 0.5h-58.5zm-159.6 13.2c17.2 0.1 26.3 0.4 20.2 0.5-6 0.2-20.3 0.4-31.6 0.6-11.4 0.1-20.5-0.1-20.2-0.5 0.2-0.4 14.5-0.7 31.6-0.6zm160 4.3l0.7 9.5 51.5 0.6-52-0.1zm29.2 1c14.9 0 21.2 0.1 14 0.3-7.1 0.1-19.3 0.1-27 0-7.7-0.2-1.8-0.3 13-0.3z"/><path class="b" d="m176.8 153.2c0.1 0.5 1.7 2 3.4 3.4 1.8 1.5 8.5 7.6 14.8 13.7 6.3 6 15.8 15.1 21 20.1 5.2 5.1 11.4 10.9 13.7 12.9l4.3 3.7h78c4-4 5-6.1 5-7.7 0-2.3-2.2-4.8-10.8-12.8-5.9-5.5-16.3-15.5-23.2-22.2l-12.5-12.2c-72.8 0.3-93.9 0.7-93.7 1.1zm-175.6 120.6l0.3 21.7c50 0.4 64.5 0.2 64.5-0.2 0.1-0.5-1.5-2.5-3.5-4.5l-3.5-3.8-46.5-0.5-0.5-34.5h-11zm199.1-20.7c-18.4 0.4-20.4 0.6-22.3 2.5-1.2 1.1-2.1 2.7-2.1 3.7 0 1.6 2.2 1.8 30.5 1.8 25.1 0 31.1 0.2 33.5 1.5 1.7 0.8 3.5 2.2 4 3.2 0.7 1.2 0.5 2.5-0.7 4.3-0.9 1.3-2.4 3-3.2 3.7-1.2 0.9-9.9 1.2-33.1 1.2h-31.5c0 20.3 0.1 20.5 2.3 20.3 1.2-0.2 3.6-0.2 5.2-0.2 3 0 3-0.1 3-5.5v-5.5c14.8 0 22.9 0 27.5 0 4.7 0 11.6-0.1 15.3-0.1 6.6 0 6.8 0.1 8.2 3.3 0.8 1.8 2.5 4.5 3.8 6 1.8 2.3 3 2.8 6.7 2.8 2.5 0 4.8-0.5 5-1 0.3-0.6-1-3.4-3-6.3-1.9-2.9-3.5-5.7-3.5-6.2 0-0.6 1-1.5 2.3-2.1 1.2-0.6 3.3-3.1 4.5-5.5 1.7-3.4 2.2-5.5 1.8-8.9-0.3-2.5-1.4-5.7-2.4-7-1-1.4-3.4-3.4-5.3-4.5-2.8-1.6-5.3-2-14.9-2-6.3 0-20.5 0.2-31.6 0.5zm64.9-0.4c-1.8 0.2-3.3 0.6-3.3 0.9 0 0.2 5.9 7.3 13.1 15.7 7.2 8.4 15.3 17.8 18 21l4.9 5.8c8.9-0.1 12-0.4 12.6-0.8 0.7-0.4 4.3-4.4 8-8.8 3.8-4.5 10.5-12.6 14.9-18 4.4-5.4 9.2-10.9 10.5-12.2 1.4-1.2 2.3-2.4 2-2.6-0.2-0.2-2.9-0.7-6-1-5.5-0.7-5.5-0.7-9.5 3.6-2.2 2.4-6.8 7.9-10.3 12.3-3.5 4.4-8.6 10.5-11.3 13.7l-4.9 5.8c-12.8-15.8-17.7-22-19.3-24-1.5-1.9-4.6-5.5-6.7-7.8-3-3.2-4.7-4.2-6.7-4.1-1.5 0.1-4.2 0.3-6 0.5zm94.3 0.6c-0.7 0.5-2 2.2-2.9 3.8-1.4 2.4-1.7 6.1-1.7 20.7v17.8c5.1-0.1 21.7-0.3 40.3-0.4l33.7-0.1c1.5-3.8 1.4-4.8 0.7-5.3-0.7-0.4-15.2-0.7-32.4-0.7h-31.3v-10l58.5-0.5 0.5-8.5h-59v-9c56.9-0.5 64.4-0.8 64.7-1.8 0.2-0.7-0.8-2.5-2.1-4l-2.4-2.7c-50.6 0-65.9 0.3-66.6 0.7z"/><path class="c" d="m228.4 14.7c-8.3 7.6-19 17.4-23.9 21.8-4.9 4.4-15 13.6-22.4 20.5-7.5 6.9-19 17.5-25.7 23.5-6.6 6.1-17.9 16.4-25 23-7.1 6.6-17.2 15.8-22.3 20.5-5.2 4.7-11.9 10.8-15 13.6-3.1 2.8-7.6 7-10.1 9.2l-4.5 4.2c6.2 0.2 28.1 0.5 52.6 0.9 42.1 0.6 44.6 0.5 44.2-1.1-0.2-1.1 0.6-2.3 1.9-2.9 1.3-0.7 2.5-1.5 2.8-1.9 0.3-0.4 2.7-2.6 5.5-5 2.7-2.3 10.1-9.1 16.4-14.9 6.3-5.8 12.6-11.7 14.1-13.1 1.4-1.4 6.4-5.9 11.1-10 4.6-4.1 13.8-12.4 20.4-18.4 6.6-6 14-12.8 16.5-15.1 2.5-2.2 9.2-8.3 15-13.5 5.8-5.1 18.3-16.6 27.8-25.4l17.3-16.1c-0.1-7-0.7-9.9-1.5-11-1.4-1.9-2.8-2-40.8-2.3l-39.4-0.3zm-26.9 238.1c3.8 0.2 9.7 0.2 13 0 3.3-0.2 0.1-0.4-7-0.4-7.2 0-9.9 0.2-6 0.4zm184 0c3.8 0.2 9.7 0.2 13 0 3.3-0.2 0.1-0.4-7-0.4-7.2 0-9.9 0.2-6 0.4zm-362.5 34c5.8 0.1 15.7 0.1 22 0 6.3-0.2 1.6-0.4-10.5-0.4-12.1 0-17.3 0.2-11.5 0.4zm354.5 9c8.8 0.1 23.4 0.1 32.5 0 9.1-0.2 1.9-0.3-16-0.3-17.9 0-25.3 0.1-16.5 0.3z"/><path fill-rule="evenodd" class="b" d="m416.3 232.2c1.5-0.1 3.4 0.5 4.2 1.3 0.8 0.8 1.5 2.2 1.5 3 0 0.9-1.2 1.7-3.3 2-1.7 0.3-9.1 0.9-16.2 1.5-7.1 0.6-19.1 1.5-26.5 2.1-7.4 0.6-13.7 0.7-14 0.4-0.3-0.4 0.4-1.3 1.5-2.1 1.1-0.7 5.6-1.8 10-2.4 4.4-0.6 13.6-1.9 20.5-3 6.9-1.1 14.1-2.1 16-2.3 1.9-0.2 4.7-0.5 6.2-0.5zm-296.2 20.1c28.1 0.2 28.6 0.3 33.5 2.7 4.1 2.1 5.5 3.5 7.8 8 1.9 3.8 2.8 7.2 2.9 11 0.1 4.2-0.6 6.9-2.8 11.4-2 4.1-4 6.6-6.4 8-3.3 2-5.3 2.1-33 2.4-16.2 0.1-31.9 0-34.8-0.3-3.4-0.3-6.1-1.3-8-2.8-1.5-1.3-3.7-4.5-5-7-1.6-3.4-2.2-6.5-2.2-11.2 0-3.6 0.7-8 1.5-9.7 0.8-1.8 2.9-4.7 4.6-6.3 1.7-1.6 5.4-3.8 8.3-4.8 4.5-1.5 8.6-1.7 33.6-1.4zm-33 13.5c-1.5 1.5-3.1 4.1-3.5 5.7-0.4 1.6-0.5 4.5-0.1 6.3 0.3 1.7 1.8 4.3 3.3 5.7 1.9 1.6 4.9 2.8 9.3 3.6 4 0.6 13.7 0.9 25 0.6 10.2-0.2 19.6-0.7 21-1 1.4-0.2 3-0.5 3.7-0.6 0.6 0 2.5-1.5 4.2-3.1 2.7-2.6 3.1-3.7 3.1-8.5 0-5-0.3-5.7-3.5-8.5l-3.5-3h-56.2z"/></svg>